<svg width="14" height="13" viewBox="0 0 14 13" fill="none" xmlns="http://www.w3.org/2000/svg">
<path d="M7.25474 0.173835C7.2919 0.10127 7.3956 0.10127 7.43276 0.173834L9.27297 3.76772C9.2875 3.79609 9.31467 3.81583 9.34614 3.82088L13.3328 4.46045C13.4133 4.47337 13.4453 4.572 13.3878 4.62976L10.5385 7.49048C10.516 7.51306 10.5056 7.54501 10.5105 7.57649L11.1342 11.5657C11.1468 11.6462 11.0629 11.7072 10.9902 11.6703L7.38897 9.84443C7.36055 9.83002 7.32695 9.83002 7.29853 9.84443L3.69733 11.6703C3.62462 11.7072 3.54072 11.6462 3.55331 11.5657L4.17698 7.57649C4.18191 7.54501 4.17153 7.51306 4.14904 7.49048L1.2997 4.62976C1.24217 4.572 1.27422 4.47337 1.35471 4.46045L5.34136 3.82088C5.37283 3.81583 5.4 3.79609 5.41453 3.76772L7.25474 0.173835Z" fill="#E9A426"/>
</svg>
